<?xml version="1.0" encoding="iso-8859-1"?>
<!-- Uploaded to: SVG Repo, www.svgrepo.com, Generator: SVG Repo Mixer Tools -->
<svg fill="#000000" height="800px" width="800px" version="1.1" id="Layer_1" xmlns="http://www.w3.org/2000/svg" xmlns:xlink="http://www.w3.org/1999/xlink" 
	 viewBox="0 0 511.999 511.999" xml:space="preserve">
<g>
	<g>
		<path d="M328.65,261.147l2.814-2.815c9.35-9.35,14.5-21.781,14.5-35.001c0-9.857-2.867-19.273-8.199-27.302l71.922-71.911
			c11.265,8.237,24.622,12.358,37.978,12.358c16.483,0,32.965-6.272,45.508-18.816c0.001,0,0.001,0,0.001,0
			c25.1-25.1,25.1-65.94-0.001-91.041c-25.087-25.088-65.92-25.09-91.028,0c-22.719,22.719-24.872,58.333-6.461,83.501
			l-71.926,71.916c-19.206-12.701-45.387-10.605-62.286,6.294l-2.819,2.819l-8.072-8.072c-9.351-9.351-21.782-14.502-35.002-14.502
			c-9.856,0-19.272,2.867-27.303,8.199l-50.797-50.81c-15.787-15.786-39.383-21.923-61.582-16.015
			c-16.603,4.406-33.939-0.925-45.234-13.909c-14.719-16.956-14.465-42.313,0.595-58.98c8.595-9.514,20.363-14.752,33.136-14.752
			c5.468,0,9.899-4.432,9.899-9.899c0-5.467-4.431-9.899-9.899-9.899c-18.177,0-35.61,7.756-47.827,21.279
			c-21.76,24.085-22.128,60.725-0.849,85.239c16.299,18.732,41.304,26.417,65.264,20.054c15.403-4.097,31.685,0.071,42.496,10.882
			l50.806,50.818c-12.693,19.207-10.597,45.392,6.293,62.296l8.074,8.072L71.495,378.308c-3.866,3.866-3.866,10.134,0,13.999
			c3.866,3.865,10.133,3.867,14,0l189.978-189.978c11.575-11.577,30.413-11.577,41.989,0c11.581,11.581,11.581,30.422-0.004,42.008
			L76.207,485.59l-41.991-42.003l24.554-24.552c3.866-3.866,3.866-10.134,0-13.999c-3.866-3.866-10.133-3.866-14,0l-31.552,31.552
			c-3.866,3.866-3.866,10.133,0,13.999l55.989,56.003c1.856,1.857,4.373,2.9,6.999,2.9c0.001,0,0.001,0,0.001,0
			c2.625,0,5.142-1.043,6.999-2.898l182.448-182.435l48.997-49.007l163.186,163.185l-42.003,42.004L290.923,335.423
			c-3.867-3.866-10.134-3.867-14,0c-3.866,3.866-3.866,10.134,0,13.999l151.913,151.913c1.857,1.857,4.374,2.9,7.001,2.9
			c2.627,0,5.142-1.043,7.001-2.9l56.003-56.003c3.866-3.866,3.866-10.134,0-13.999L328.65,261.147z M416.144,40.622
			c8.693-8.687,20.106-13.031,31.521-13.031c11.412,0,22.825,4.344,31.51,13.029c17.381,17.38,17.381,45.661,0,63.043
			c-17.371,17.372-45.649,17.37-63.028,0C398.765,86.28,398.765,57.999,416.144,40.622z M202.65,247.151l-8.07-8.068
			c-11.571-11.581-11.571-30.422-0.007-42.003c0.001-0.001,0.003-0.001,0.003-0.003c0.001-0.001,0.003-0.003,0.003-0.004
			c5.613-5.609,13.069-8.699,21.001-8.699c7.931,0,15.39,3.09,21.001,8.702l8.072,8.072L202.65,247.151z"/>
	</g>
</g>
</svg>