<?xml version="1.0" encoding="iso-8859-1"?>
<!-- Uploaded to: SVG Repo, www.svgrepo.com, Generator: SVG Repo Mixer Tools -->
<svg height="800px" width="800px" version="1.1" id="Layer_1" xmlns="http://www.w3.org/2000/svg" xmlns:xlink="http://www.w3.org/1999/xlink" 
	 viewBox="0 0 512 512" xml:space="preserve">
<polygon style="fill:#F4411E;" points="443.174,79.844 443.174,123.875 415.644,123.875 415.644,151.405 371.603,151.405 
	371.603,123.875 344.083,123.875 344.083,79.844 371.603,79.844 371.603,52.314 415.644,52.314 415.644,79.844 "/>
<path style="fill:#31C0D8;" d="M472.569,152.144c-16.622,26.041-45.762,43.303-78.94,43.303c-51.685,0-93.587-41.902-93.587-93.587
	c0-15.971,4.004-31.016,11.063-44.163c15.772-29.416,46.81-49.424,82.524-49.424c51.685,0,93.587,41.902,93.587,93.587
	C487.216,120.367,481.845,137.618,472.569,152.144z M443.174,123.875V79.844h-27.53v-27.53h-44.042v27.53h-27.519v44.031h27.519
	v27.53h44.042v-27.53C415.644,123.875,443.174,123.875,443.174,123.875z"/>
<path style="fill:#E7ECED;" d="M473.396,156.909c1.831,11.581,2.813,24.387,2.813,38.538c0,214.694-148.648,308.281-148.648,308.281
	c-22.015,0-22.015-22.015-22.015-22.015V344.083c0-55.049-55.049-55.049-55.049-55.049s-55.049,0-55.049,55.049v137.629
	c0,0,0,22.015-22.026,22.015c0,0-148.637-93.587-148.637-308.281c0-214.705,225.712-121.117,225.712-121.117
	s26.107-10.82,60.553-16.666l0.055,0.033c-7.059,13.147-11.063,28.192-11.063,44.163c0,51.685,41.902,93.587,93.587,93.587
	c33.177,0,62.318-17.262,78.94-43.303C472.867,153.699,473.142,155.299,473.396,156.909z"/>
<path d="M481.265,153.788c9.312-15.682,14.224-33.562,14.224-51.928C495.489,45.694,449.795,0,393.629,0
	c-36.226,0-69.482,19.128-87.779,50.183c-26.609,4.863-47.625,12.31-55.354,15.257c-8.313-3.171-31.992-11.551-61.47-16.311
	c-48.618-7.851-89.621-1.774-118.585,17.571c-35.785,23.901-53.93,67.218-53.93,128.746c0,49.923,7.976,97.54,23.707,141.528
	c12.601,35.238,30.175,68.223,52.232,98.042c37.652,50.899,74.99,74.722,76.562,75.711l2.021,1.272h2.388
	c22.229,0,30.299-18.113,30.299-30.288V344.083c0-19.238,7.568-32.877,22.492-40.536c11.866-6.09,24.189-6.241,24.285-6.241
	c1.909,0,46.777,0.532,46.777,46.777v137.629c0,12.175,8.066,30.288,30.288,30.288h2.387l2.021-1.272
	c1.571-0.988,38.912-24.811,76.567-75.711c22.058-29.818,39.634-62.804,52.236-98.042c15.733-43.989,23.71-91.605,23.71-141.528
	c0-14.193-0.981-27.594-2.914-39.828C481.47,154.996,481.367,154.393,481.265,153.788z M318.394,61.605
	c14.903-27.795,43.732-45.061,75.235-45.061c47.042,0,85.315,38.272,85.315,85.315c0,16.31-4.616,32.158-13.348,45.834
	c-15.779,24.722-42.683,39.481-71.967,39.481c-47.043,0-85.316-38.272-85.316-85.315c0-14.05,3.485-27.968,10.08-40.251
	L318.394,61.605z M445.361,330.936c-11.982,33.645-28.697,65.149-49.68,93.638c-27.153,36.866-56.688,61.514-70.392,70.756
	c-10.393-1.2-11.417-10.65-11.47-13.617V344.083c0-32.662-17.455-48.246-32.098-55.567c-15.332-7.667-30.583-7.755-31.224-7.755
	s-15.892,0.088-31.224,7.755c-14.643,7.322-32.098,22.904-32.098,55.567v137.629c0,0.035-0.11,3.771-1.879,7.307
	c-1.234,2.466-3.546,5.659-9.548,6.316c-8.172-5.63-39.113-28.408-69.995-70.156c-21.093-28.514-37.9-60.065-49.956-93.775
	c-15.09-42.196-22.741-87.939-22.741-135.958c0-55.637,15.658-94.317,46.539-114.964c62.005-41.455,166.687,1.056,167.732,1.489
	l3.168,1.31l3.164-1.309c0.213-0.088,18.258-7.479,43.62-13.164c-3.622,10.589-5.512,21.785-5.512,33.051
	c0,56.166,45.695,101.86,101.861,101.86c28.087,0,54.332-11.378,73.336-31.15c0.641,7.296,0.972,14.941,0.972,22.878
	C467.936,243.287,460.341,288.872,445.361,330.936z"/>
<path d="M102.224,112.576c-16.498,13.063-36.166,37.087-36.166,77.367h16.545c0-64.029,57.37-79.438,59.813-80.064l-4.034-16.045
	C137.636,94.021,119.933,98.555,102.224,112.576z"/>
<path d="M363.331,159.677h60.586v-27.53h27.53V71.572h-27.53v-27.53h-60.586v27.53h-27.519v60.575h27.519V159.677z M352.356,115.603
	V88.117h27.519v-27.53h27.497v27.53h27.53v27.486h-27.53v27.53h-27.497v-27.53C379.875,115.603,352.356,115.603,352.356,115.603z"/>
</svg>