<?xml version="1.0" encoding="utf-8"?>

<!DOCTYPE svg PUBLIC "-//W3C//DTD SVG 1.1//EN" "http://www.w3.org/Graphics/SVG/1.1/DTD/svg11.dtd">
<!-- Uploaded to: SVG Repo, www.svgrepo.com, Generator: SVG Repo Mixer Tools -->
<svg height="800px" width="800px" version="1.1" id="_x32_" xmlns="http://www.w3.org/2000/svg" xmlns:xlink="http://www.w3.org/1999/xlink" 
	 viewBox="0 0 512 512"  xml:space="preserve">
<style type="text/css">
	.st0{fill:#000000;}
</style>
<g>
	<path class="st0" d="M386.504,156.575c-19.34-15.092-38.896-20.3-56.195-20.19c-13.232,0.017-25.064,2.706-35.536,5.081
		c-10.48,2.436-19.632,4.481-27.221,4.448c-7.575,0.034-16.723-2.012-27.207-4.448c-10.472-2.376-22.304-5.064-35.532-5.081
		c-17.303-0.11-36.86,5.09-56.199,20.198c-14.36,11.067-24.785,25.576-31.35,42.148c-6.591,16.588-9.483,35.188-9.491,55.193
		c0.016,30.64,6.764,64.722,18.486,100.909c12.104,37.336,22.477,64.789,30.15,84.751c3.826,9.968,6.975,18.068,9.284,24.468
		c2.312,6.358,3.75,11.11,4.228,13.756c1.886,10.23,6.612,18.93,13.354,24.966c6.718,6.037,15.329,9.241,23.94,9.225
		c8.895,0.008,17.747-3.365,24.815-9.58c7.098-6.214,12.362-15.185,14.898-26.041c0.74-3.187,1.21-6.536,1.679-10.306
		c0.802-6.561,1.513-14.323,2.528-22.304c1.484-11.93,3.86-24.409,7.398-32.45c1.712-4.034,3.669-6.781,5.132-8.049
		c1.544-1.268,2.08-1.471,3.889-1.573c1.421,0.042,1.987,0.254,2.943,0.828c1.603,0.931,4.35,4.254,6.59,9.968
		c3.45,8.464,5.682,21.095,7.111,32.983c0.736,5.952,1.311,11.752,1.886,16.96c0.604,5.25,1.15,9.782,2.109,13.942
		c2.541,10.856,7.788,19.827,14.89,26.041c7.068,6.232,15.933,9.588,24.824,9.58c8.611,0.016,17.222-3.188,23.94-9.233
		c6.747-6.028,11.46-14.728,13.355-24.958c0.481-2.647,1.918-7.398,4.227-13.756c6.954-19.294,21.298-53.274,39.433-109.219
		c11.727-36.179,18.47-70.269,18.478-100.909c0-19.996-2.892-38.605-9.482-55.193C411.281,182.159,400.856,167.643,386.504,156.575z
		 M384.598,346.97c-11.925,36.77-22.08,63.648-29.698,83.475c-3.813,9.925-6.984,18.076-9.465,24.941
		c-2.474,6.899-4.292,12.437-5.298,17.722c-1.065,5.546-3.191,8.742-5.318,10.661c-2.156,1.919-4.456,2.698-6.916,2.732
		c-2.541-0.018-5.302-0.905-8.003-3.247c-2.672-2.359-5.351-6.291-6.878-12.716c-0.342-1.437-0.786-4.194-1.197-7.567
		c-0.727-5.952-1.458-13.908-2.54-22.43c-1.687-12.852-3.996-26.972-9.271-39.332c-2.693-6.172-6.181-12.091-11.528-16.927
		c-5.259-4.844-12.886-8.184-20.935-8.083c-6.092-0.034-12.052,1.81-16.791,4.913c-8.357,5.53-13.012,13.604-16.394,21.873
		c-4.98,12.513-7.165,26.674-8.754,39.374c-0.786,6.333-1.37,12.268-1.927,17.24c-0.546,4.938-1.12,9.03-1.59,10.941
		c-1.522,6.426-4.207,10.348-6.879,12.699c-2.713,2.359-5.461,3.246-8.002,3.246c-2.468-0.016-4.76-0.811-6.916-2.714
		c-2.126-1.919-4.253-5.115-5.318-10.652c-1.006-5.294-2.824-10.831-5.297-17.73c-7.407-20.495-21.26-53.206-39.163-108.416
		c-11.174-34.42-17.256-66.194-17.236-93.046c-0.012-17.544,2.566-32.94,7.682-45.767c5.136-12.842,12.657-23.192,23.242-31.392
		c15.481-11.837,27.948-14.762,40.605-14.872c9.664-0.009,19.514,2.054,29.841,4.439c10.328,2.333,21.108,5.039,32.898,5.081
		c11.796-0.042,22.575-2.748,32.902-5.081c10.336-2.384,20.186-4.448,29.854-4.439c12.644,0.11,25.107,3.044,40.6,14.872
		c10.586,8.2,18.106,18.541,23.243,31.392c5.115,12.826,7.685,28.222,7.685,45.767C401.855,280.785,395.771,312.567,384.598,346.97z
		"/>
	<path class="st0" d="M461.165,59.632l-43.593-11.55c-1.141-0.254-2.072-1.167-2.317-2.317L403.757,2.173
		C403.452,0.905,402.328,0,401.018,0c-1.311,0-2.436,0.905-2.74,2.173l-11.49,43.592c-0.262,1.15-1.184,2.063-2.325,2.317
		l-43.593,11.55c-1.276,0.254-2.181,1.386-2.181,2.697c0,1.311,0.905,2.443,2.181,2.688l43.593,11.558
		c1.141,0.237,2.062,1.167,2.325,2.317l11.49,43.585c0.304,1.276,1.429,2.181,2.74,2.181c1.31,0,2.434-0.905,2.739-2.181
		l11.498-43.585c0.245-1.15,1.176-2.08,2.317-2.317l43.593-11.558c1.277-0.245,2.182-1.378,2.182-2.688
		C463.346,61.018,462.442,59.886,461.165,59.632z"/>
	<path class="st0" d="M268.72,255.75l-39.809-10.551c-1.044-0.228-1.89-1.066-2.114-2.114l-10.501-39.805
		c-0.279-1.158-1.306-1.987-2.502-1.987c-1.197,0-2.224,0.829-2.503,1.987l-10.492,39.805c-0.236,1.048-1.078,1.886-2.122,2.114
		l-39.81,10.551c-1.166,0.229-1.99,1.268-1.99,2.461c0,1.201,0.824,2.232,1.99,2.46l39.81,10.551
		c1.044,0.22,1.886,1.066,2.122,2.114l10.492,39.805c0.279,1.167,1.306,1.987,2.503,1.987c1.196,0,2.223-0.82,2.502-1.987
		l10.501-39.805c0.224-1.048,1.07-1.894,2.114-2.114l39.809-10.551c1.167-0.228,1.991-1.26,1.991-2.46
		C270.711,257.018,269.887,255.979,268.72,255.75z"/>
	<path class="st0" d="M109.731,130.72l33.756-8.945c0.989-0.195,1.686-1.065,1.686-2.088c0-1.006-0.698-1.894-1.686-2.088
		l-33.756-8.945c-0.883-0.195-1.602-0.905-1.792-1.792l-8.903-33.752c-0.236-0.981-1.107-1.682-2.122-1.682
		c-1.014,0-1.886,0.701-2.122,1.682l-8.895,33.752c-0.203,0.888-0.917,1.598-1.801,1.792l-33.756,8.945
		c-0.99,0.194-1.686,1.082-1.686,2.088c0,1.024,0.697,1.894,1.686,2.088l33.756,8.945c0.884,0.186,1.598,0.905,1.801,1.792
		l8.895,33.752c0.236,0.989,1.108,1.682,2.122,1.682c1.015,0,1.886-0.694,2.122-1.682l8.903-33.752
		C108.129,131.625,108.848,130.906,109.731,130.72z"/>
</g>
</svg>