<?xml version="1.0" encoding="iso-8859-1"?>
<!-- Uploaded to: SVG Repo, www.svgrepo.com, Generator: SVG Repo Mixer Tools -->
<svg height="800px" width="800px" version="1.1" id="Layer_1" xmlns="http://www.w3.org/2000/svg" xmlns:xlink="http://www.w3.org/1999/xlink" 
	 viewBox="0 0 512 512" xml:space="preserve">
<path style="fill:#F4D8AA;" d="M363.181,83.027h1.824l-12.14-13.838h-193.73l-10.316,13.838
	c-6.686,14.775-10.441,31.16-10.441,48.432c0,64.96,52.661,117.622,117.622,117.622s117.622-52.661,117.622-117.622
	C373.622,114.187,369.867,97.802,363.181,83.027z"/>
<path style="fill:#ECB45C;" d="M363.181,83.027h1.824l-12.14-13.838H256v179.892c64.96,0,117.622-52.661,117.622-117.622
	C373.622,114.187,369.867,97.802,363.181,83.027z"/>
<g>
	<path style="fill:#7CDBC2;" d="M256,249.081c-114.635,0-207.568,92.932-207.568,207.568c0,30.569,24.782,55.351,55.351,55.351
		h304.432c30.571,0,55.351-24.782,55.351-55.351C463.568,342.013,370.635,249.081,256,249.081z"/>
	<path style="fill:#7CDBC2;" d="M321.731,0H190.27c-22.927,0-41.514,18.587-41.514,41.514v41.514h214.488V41.514
		C363.245,18.587,344.658,0,321.731,0z"/>
	<ellipse style="fill:#7CDBC2;" cx="256" cy="207.568" rx="69.189" ry="41.514"/>
</g>
<g>
	<path style="fill:#73CAB1;" d="M256,249.081V512h152.216c30.571,0,55.351-24.782,55.351-55.351
		C463.568,342.013,370.635,249.081,256,249.081z"/>
	<path style="fill:#73CAB1;" d="M363.245,41.514C363.245,18.587,344.658,0,321.731,0H256v83.027h107.245V41.514z"/>
	<path style="fill:#73CAB1;" d="M256,166.054v83.027c38.212,0,69.189-18.587,69.189-41.514S294.212,166.054,256,166.054z"/>
</g>
</svg>